# Blender v2.82 (sub 7) OBJ File: ''
# www.blender.org
mtllib Tembok.mtl
o Cube_Cube.001
v 4.484429 -0.985705 0.746533
v 4.484429 4.731962 0.746533
v 4.484429 -0.985705 -0.746532
v 4.484429 4.731962 -0.746532
v 6.484429 -0.961423 0.422401
v 6.484429 -0.961423 -0.422400
v 6.484429 4.731962 -0.746532
v 6.484429 -0.985705 -0.746532
v 6.484429 -0.985705 0.746533
v 6.484429 4.731962 0.746533
v 12.011131 -0.961423 -0.422400
v 12.011131 -0.961423 0.422401
v 19.951178 -0.985705 -0.746532
v 19.951178 4.731963 -0.746532
v 19.951178 -0.985705 0.746532
v 19.951178 4.731963 0.746532
v 17.951178 -0.961424 -0.422400
v 17.951178 -0.961424 0.422401
v 17.951178 4.731963 0.746533
v 17.951178 -0.985705 0.746533
v 17.951178 -0.985705 -0.746532
v 17.951178 4.731963 -0.746532
v 6.484429 3.696063 0.422401
v 6.484429 3.872005 0.376457
v 6.484429 3.972202 0.460167
v 6.484429 3.820472 0.408944
v 6.484429 3.872005 -0.376456
v 6.484429 3.696063 -0.422400
v 6.484429 3.972202 -0.460166
v 6.484429 3.820472 -0.408944
v 12.011131 3.872005 -0.376456
v 12.011131 3.696063 -0.422400
v 12.011131 3.820472 -0.408944
v 12.011131 3.696063 0.422401
v 12.011131 3.872005 0.376457
v 12.011131 3.820472 0.408944
v 17.951178 3.696063 -0.422400
v 17.951178 3.872005 -0.376456
v 17.951178 3.972202 -0.460166
v 17.951178 3.820472 -0.408944
v 17.951178 3.872005 0.376457
v 17.951178 3.696063 0.422401
v 17.951178 3.972202 0.460167
v 17.951178 3.820472 0.408944
vt 0.375000 0.000000
vt 0.625000 0.000000
vt 0.625000 0.250000
vt 0.375000 0.250000
vt 0.625000 0.500000
vt 0.375000 0.500000
vt 0.375000 0.750000
vt 0.625000 0.750000
vt 0.625000 1.000000
vt 0.375000 1.000000
vt 0.125000 0.500000
vt 0.125000 0.750000
vt 0.875000 0.500000
vt 0.875000 0.750000
vt 0.394331 0.519331
vt 0.394331 0.730669
vt 0.607921 0.517079
vt 0.597976 0.519331
vt 0.597976 0.730669
vt 0.607921 0.732921
vt 0.375000 0.000000
vt 0.625000 0.000000
vt 0.625000 0.250000
vt 0.375000 0.250000
vt 0.625000 0.500000
vt 0.375000 0.500000
vt 0.375000 0.750000
vt 0.625000 0.750000
vt 0.625000 1.000000
vt 0.375000 1.000000
vt 0.125000 0.500000
vt 0.125000 0.750000
vt 0.875000 0.500000
vt 0.875000 0.750000
vt 0.394331 0.519331
vt 0.394331 0.730669
vt 0.597976 0.730669
vt 0.607921 0.732921
vt 0.607921 0.517079
vt 0.597976 0.519331
vt 0.605669 0.719175
vt 0.605669 0.530825
vt 0.603416 0.730669
vt 0.605669 0.730669
vt 0.605669 0.522698
vt 0.605669 0.519331
vt 0.605669 0.719175
vt 0.605669 0.530825
vt 0.597976 0.519331
vt 0.394331 0.519331
vt 0.000000 0.000000
vt 0.000000 0.000000
vt 0.000000 0.000000
vt 0.000000 0.000000
vt 0.394331 0.730669
vt 0.597976 0.730669
vt 0.605669 0.719175
vt 0.605669 0.530825
vt 0.000000 0.000000
vt 0.000000 0.000000
vt 0.000000 0.000000
vt 0.000000 0.000000
vt 0.603415 0.730669
vt 0.605669 0.730669
vt 0.605669 0.522698
vt 0.605669 0.519331
vt 0.605669 0.730669
vt 0.605669 0.730669
vt 0.605669 0.519331
vt 0.605669 0.519331
vt 0.605669 0.730669
vt 0.000000 0.000000
vt 0.000000 0.000000
vt 0.000000 0.000000
vt 0.000000 0.000000
vt 0.605669 0.519331
vn -1.0000 0.0000 0.0000
vn 0.0000 0.0000 -1.0000
vn 0.0000 0.0000 1.0000
vn 0.0000 -1.0000 0.0000
vn 0.0000 1.0000 0.0000
vn 1.0000 0.0000 0.0000
vn 0.0000 0.1075 0.9942
vn 0.0000 0.5333 0.8459
vn 0.0000 0.1075 -0.9942
vn 0.0000 0.5333 -0.8459
usemtl Material.001
s off
f 1/1/1 2/2/1 4/3/1 3/4/1
f 3/4/2 4/3/2 7/5/2 8/6/2
f 9/7/3 10/8/3 2/9/3 1/10/3
f 3/11/4 8/6/4 9/7/4 1/12/4
f 7/5/5 4/13/5 2/14/5 10/8/5
f 6/15/6 5/16/6 9/7/6 8/6/6
f 29/17/6 28/18/6 6/15/6 8/6/6 7/5/6
f 5/16/6 23/19/6 25/20/6 10/8/6 9/7/6
f 13/21/6 14/22/6 16/23/6 15/24/6
f 15/24/3 16/23/3 19/25/3 20/26/3
f 21/27/2 22/28/2 14/29/2 13/30/2
f 15/31/4 20/26/4 21/27/4 13/32/4
f 19/25/5 16/33/5 14/34/5 22/28/5
f 18/35/1 17/36/1 21/27/1 20/26/1
f 17/36/1 37/37/1 39/38/1 22/28/1 21/27/1
f 43/39/1 42/40/1 18/35/1 20/26/1 19/25/1
f 39/38/1 38/41/1 41/42/1 43/39/1 19/25/1 22/28/1
f 37/37/1 40/43/1 39/38/1
f 40/43/1 38/44/1 39/38/1
f 41/42/1 44/45/1 43/39/1
f 44/45/1 42/46/1 43/39/1
f 25/20/6 24/47/6 27/48/6 29/17/6 7/5/6 10/8/6
usemtl Material
f 6/15/2 28/18/2 32/49/2 11/50/2
f 17/51/2 11/52/2 32/53/2 37/54/2
f 23/19/3 5/16/3 12/55/3 34/56/3
f 27/48/5 24/47/5 35/57/5 31/58/5
f 5/16/4 6/15/4 11/50/4 12/55/4
f 42/59/3 34/60/3 12/61/3 18/62/3
f 12/55/4 11/50/4 17/36/4 18/35/4
f 31/58/5 35/57/5 41/42/5 38/41/5
f 23/19/6 26/63/6 25/20/6
f 26/63/6 24/64/6 25/20/6
f 27/48/6 30/65/6 29/17/6
f 30/65/6 28/66/6 29/17/6
f 23/19/7 34/56/7 36/67/7 26/68/7
f 26/68/8 36/67/8 35/57/8 24/47/8
f 32/49/9 28/18/9 30/69/9 33/70/9
f 33/70/10 30/69/10 27/48/10 31/58/10
f 31/58/10 38/41/10 40/71/10 33/70/10
f 33/72/9 40/73/9 37/54/9 32/53/9
f 34/60/7 42/59/7 44/74/7 36/75/7
f 36/67/8 44/76/8 41/42/8 35/57/8
